<?xml version="1.0" encoding="utf-8"?>
<!-- Generator: Adobe Illustrator 17.1.0, SVG Export Plug-In . SVG Version: 6.00 Build 0)  -->
<!DOCTYPE svg PUBLIC "-//W3C//DTD SVG 1.1//EN" "http://www.w3.org/Graphics/SVG/1.1/DTD/svg11.dtd">
<svg version="1.1" id="Layer_1" xmlns="http://www.w3.org/2000/svg" xmlns:xlink="http://www.w3.org/1999/xlink" x="0px" y="0px"
	 viewBox="0 0 90 90" enable-background="new 0 0 90 90" xml:space="preserve">
<g>
	<g>
		<defs>
			<circle id="SVGID_1_" cx="45" cy="45" r="45"/>
		</defs>
		<clipPath id="SVGID_2_">
			<use xlink:href="#SVGID_1_"  overflow="visible"/>
		</clipPath>
		<circle clip-path="url(#SVGID_2_)" fill="#414042" stroke="#414042" stroke-miterlimit="10" cx="45" cy="45" r="45"/>
		<path clip-path="url(#SVGID_2_)" fill="#FFFFFF" d="M61.1,80.4h-9.8c0-3.5-2.9-6.3-6.3-6.3c-3.5,0-6.3,2.8-6.3,6.3h-9.8
			c-1.5,0-2.1,7.1-2.1,10.6h37.8C64.5,87.5,62.6,80.4,61.1,80.4z"/>
		<polygon clip-path="url(#SVGID_2_)" fill="#FFFFFF" points="46.2,-0.8 43.8,-0.8 42.3,78.3 47.7,78.3 		"/>
		<circle clip-path="url(#SVGID_2_)" fill="#FFFFFF" cx="45" cy="25.3" r="4"/>
		<polyline clip-path="url(#SVGID_2_)" fill="none" stroke="#FFFFFF" stroke-width="2.8361" stroke-miterlimit="10" points="
			46.7,24.4 57.7,19.3 76.4,19.3 		"/>
		<polyline clip-path="url(#SVGID_2_)" fill="none" stroke="#FFFFFF" stroke-width="2.8361" stroke-miterlimit="10" points="
			43.2,24.4 32.1,19.3 13.5,19.3 		"/>
		
			<polyline clip-path="url(#SVGID_2_)" fill="none" stroke="#FFFFFF" stroke-width="1.8907" stroke-linecap="round" stroke-linejoin="round" stroke-miterlimit="10" points="
			54.7,59.4 68.6,19.6 82.2,60 		"/>
		
			<line clip-path="url(#SVGID_2_)" fill="none" stroke="#FFFFFF" stroke-width="1.8907" stroke-linecap="round" stroke-linejoin="round" stroke-miterlimit="10" x1="68.4" y1="13" x2="68.4" y2="20.1"/>
		
			<polyline clip-path="url(#SVGID_2_)" fill="none" stroke="#FFFFFF" stroke-width="1.8907" stroke-linecap="round" stroke-linejoin="round" stroke-miterlimit="10" points="
			7.8,59.4 21.7,19.6 35.3,60 		"/>
		
			<line clip-path="url(#SVGID_2_)" fill="none" stroke="#FFFFFF" stroke-width="1.8907" stroke-linecap="round" stroke-linejoin="round" stroke-miterlimit="10" x1="21.6" y1="13" x2="21.6" y2="20.1"/>
		<path clip-path="url(#SVGID_2_)" fill="#FFFFFF" d="M6.4,59.2c2.3,6.1,8.2,10.5,15.2,10.5c7,0,12.9-4.4,15.2-10.5H6.4z"/>
		<path clip-path="url(#SVGID_2_)" fill="#FFFFFF" d="M53.3,59.2c2.3,6.1,8.2,10.5,15.2,10.5c7,0,12.9-4.4,15.2-10.5H53.3z"/>
	</g>
</g>
</svg>
