<?xml version="1.0" encoding="utf-8"?>
<!-- Generator: Adobe Illustrator 17.1.0, SVG Export Plug-In . SVG Version: 6.00 Build 0)  -->
<!DOCTYPE svg PUBLIC "-//W3C//DTD SVG 1.1//EN" "http://www.w3.org/Graphics/SVG/1.1/DTD/svg11.dtd">
<svg version="1.1" id="Layer_1" xmlns="http://www.w3.org/2000/svg" xmlns:xlink="http://www.w3.org/1999/xlink" x="0px" y="0px"
	 viewBox="0 0 90 90" enable-background="new 0 0 90 90" xml:space="preserve">
<g>
	<defs>
		<circle id="SVGID_1_" cx="45" cy="45" r="45"/>
	</defs>
	<clipPath id="SVGID_2_">
		<use xlink:href="#SVGID_1_"  overflow="visible"/>
	</clipPath>
	<g clip-path="url(#SVGID_2_)">
		<g>
			
				<rect x="31.6" y="88" transform="matrix(-0.7071 -0.7071 0.7071 -0.7071 4.3859 203.4326)" fill="#231F20" width="25.5" height="25.5"/>
			<line fill="none" stroke="#FFFFFF" stroke-width="1.4243" stroke-miterlimit="10" x1="34.4" y1="110.7" x2="53.5" y2="91.6"/>
			<line fill="none" stroke="#FFFFFF" stroke-width="1.4243" stroke-miterlimit="10" x1="53.5" y1="110.7" x2="34.4" y2="91.6"/>
			<g>
				
					<rect x="37.3" y="93.8" transform="matrix(-0.7071 -0.7071 0.7071 -0.7071 4.3075 203.4001)" fill="#231F20" stroke="#FFFFFF" stroke-width="1.4243" stroke-miterlimit="10" width="13.9" height="13.9"/>
				
					<rect x="41.8" y="98.7" transform="matrix(-0.7071 -0.7071 0.7071 -0.7071 3.7437 203.1666)" fill="#FFFFFF" width="4.3" height="4.3"/>
			</g>
		</g>
		<g>
			
				<rect x="50.6" y="69" transform="matrix(-0.7071 -0.7071 0.7071 -0.7071 50.4247 184.363)" fill="#231F20" width="25.5" height="25.5"/>
			<line fill="none" stroke="#FFFFFF" stroke-width="1.4243" stroke-miterlimit="10" x1="53.5" y1="91.6" x2="72.6" y2="72.6"/>
			<line fill="none" stroke="#FFFFFF" stroke-width="1.4243" stroke-miterlimit="10" x1="72.6" y1="91.6" x2="53.5" y2="72.6"/>
			<g>
				
					<rect x="56.4" y="74.8" transform="matrix(-0.7071 -0.7071 0.7071 -0.7071 50.3463 184.3303)" fill="#231F20" stroke="#FFFFFF" stroke-width="1.4243" stroke-miterlimit="10" width="13.9" height="13.9"/>
				
					<rect x="60.9" y="79.6" transform="matrix(-0.7071 -0.7071 0.7071 -0.7071 49.7825 184.0968)" fill="#FFFFFF" width="4.3" height="4.3"/>
			</g>
		</g>
		<g>
			
				<rect x="69.7" y="49.9" transform="matrix(-0.7071 -0.7071 0.7071 -0.7071 96.4635 165.2934)" fill="#231F20" width="25.5" height="25.5"/>
			<line fill="none" stroke="#FFFFFF" stroke-width="1.4243" stroke-miterlimit="10" x1="72.6" y1="72.6" x2="91.6" y2="53.5"/>
			<line fill="none" stroke="#FFFFFF" stroke-width="1.4243" stroke-miterlimit="10" x1="91.6" y1="72.6" x2="72.6" y2="53.5"/>
			<g>
				
					<rect x="75.4" y="55.7" transform="matrix(-0.7071 -0.7071 0.7071 -0.7071 96.385 165.2605)" fill="#231F20" stroke="#FFFFFF" stroke-width="1.4243" stroke-miterlimit="10" width="13.9" height="13.9"/>
				
					<rect x="80" y="60.5" transform="matrix(-0.7071 -0.7071 0.7071 -0.7071 95.8213 165.027)" fill="#FFFFFF" width="4.3" height="4.3"/>
			</g>
		</g>
		<g>
			
				<rect x="88.8" y="30.8" transform="matrix(-0.7071 -0.7071 0.7071 -0.7071 142.5023 146.2238)" fill="#231F20" width="25.5" height="25.5"/>
			<line fill="none" stroke="#FFFFFF" stroke-width="1.4243" stroke-miterlimit="10" x1="91.6" y1="53.5" x2="110.7" y2="34.4"/>
			<line fill="none" stroke="#FFFFFF" stroke-width="1.4243" stroke-miterlimit="10" x1="110.7" y1="53.5" x2="91.6" y2="34.4"/>
			<g>
				
					<rect x="94.5" y="36.6" transform="matrix(-0.7071 -0.7071 0.7071 -0.7071 142.4238 146.1907)" fill="#231F20" stroke="#FFFFFF" stroke-width="1.4243" stroke-miterlimit="10" width="13.9" height="13.9"/>
				
					<rect x="99" y="41.5" transform="matrix(-0.7071 -0.7071 0.7071 -0.7071 141.8601 145.9572)" fill="#FFFFFF" width="4.3" height="4.3"/>
			</g>
		</g>
		<g>
			
				<rect x="12.5" y="69" transform="matrix(-0.7071 -0.7071 0.7071 -0.7071 -14.6837 157.3938)" fill="#231F20" width="25.5" height="25.5"/>
			<line fill="none" stroke="#FFFFFF" stroke-width="1.4243" stroke-miterlimit="10" x1="15.4" y1="91.6" x2="34.4" y2="72.6"/>
			<line fill="none" stroke="#FFFFFF" stroke-width="1.4243" stroke-miterlimit="10" x1="34.4" y1="91.6" x2="15.4" y2="72.6"/>
			<g>
				
					<rect x="18.2" y="74.8" transform="matrix(-0.7071 -0.7071 0.7071 -0.7071 -14.7623 157.3613)" fill="#231F20" stroke="#FFFFFF" stroke-width="1.4243" stroke-miterlimit="10" width="13.9" height="13.9"/>
				
					<rect x="22.7" y="79.6" transform="matrix(-0.7071 -0.7071 0.7071 -0.7071 -15.3261 157.1278)" fill="#FFFFFF" width="4.3" height="4.3"/>
			</g>
		</g>
		<g>
			
				<rect x="31.6" y="49.9" transform="matrix(-0.7071 -0.7071 0.7071 -0.7071 31.3551 138.3242)" fill="#231F20" width="25.5" height="25.5"/>
			<line fill="none" stroke="#FFFFFF" stroke-width="1.4243" stroke-miterlimit="10" x1="34.4" y1="72.6" x2="53.5" y2="53.5"/>
			<line fill="none" stroke="#FFFFFF" stroke-width="1.4243" stroke-miterlimit="10" x1="53.5" y1="72.6" x2="34.4" y2="53.5"/>
			<g>
				
					<rect x="37.3" y="55.7" transform="matrix(-0.7071 -0.7071 0.7071 -0.7071 31.2764 138.2915)" fill="#231F20" stroke="#FFFFFF" stroke-width="1.4243" stroke-miterlimit="10" width="13.9" height="13.9"/>
				
					<rect x="41.8" y="60.5" transform="matrix(-0.7071 -0.7071 0.7071 -0.7071 30.7127 138.058)" fill="#FFFFFF" width="4.3" height="4.3"/>
			</g>
		</g>
		<g>
			
				<rect x="50.6" y="30.8" transform="matrix(-0.7071 -0.7071 0.7071 -0.7071 77.3939 119.2546)" fill="#231F20" width="25.5" height="25.5"/>
			<line fill="none" stroke="#FFFFFF" stroke-width="1.4243" stroke-miterlimit="10" x1="53.5" y1="53.5" x2="72.6" y2="34.4"/>
			<line fill="none" stroke="#FFFFFF" stroke-width="1.4243" stroke-miterlimit="10" x1="72.6" y1="53.5" x2="53.5" y2="34.4"/>
			<g>
				
					<rect x="56.4" y="36.6" transform="matrix(-0.7071 -0.7071 0.7071 -0.7071 77.3152 119.2217)" fill="#231F20" stroke="#FFFFFF" stroke-width="1.4243" stroke-miterlimit="10" width="13.9" height="13.9"/>
				
					<rect x="60.9" y="41.5" transform="matrix(-0.7071 -0.7071 0.7071 -0.7071 76.7515 118.9882)" fill="#FFFFFF" width="4.3" height="4.3"/>
			</g>
		</g>
		<g>
			
				<rect x="69.7" y="11.8" transform="matrix(-0.7071 -0.7071 0.7071 -0.7071 123.4327 100.185)" fill="#231F20" width="25.5" height="25.5"/>
			<line fill="none" stroke="#FFFFFF" stroke-width="1.4243" stroke-miterlimit="10" x1="72.6" y1="34.4" x2="91.6" y2="15.4"/>
			<line fill="none" stroke="#FFFFFF" stroke-width="1.4243" stroke-miterlimit="10" x1="91.6" y1="34.4" x2="72.6" y2="15.4"/>
			<g>
				
					<rect x="75.4" y="17.6" transform="matrix(-0.7071 -0.7071 0.7071 -0.7071 123.354 100.1519)" fill="#231F20" stroke="#FFFFFF" stroke-width="1.4243" stroke-miterlimit="10" width="13.9" height="13.9"/>
				
					<rect x="80" y="22.4" transform="matrix(-0.7071 -0.7071 0.7071 -0.7071 122.7903 99.9184)" fill="#FFFFFF" width="4.3" height="4.3"/>
			</g>
		</g>
		<g>
			
				<rect x="-6.6" y="49.9" transform="matrix(-0.7071 -0.7071 0.7071 -0.7071 -33.7533 111.3551)" fill="#231F20" width="25.5" height="25.5"/>
			<line fill="none" stroke="#FFFFFF" stroke-width="1.4243" stroke-miterlimit="10" x1="-3.7" y1="72.6" x2="15.4" y2="53.5"/>
			<line fill="none" stroke="#FFFFFF" stroke-width="1.4243" stroke-miterlimit="10" x1="15.4" y1="72.6" x2="-3.7" y2="53.5"/>
			<g>
				
					<rect x="-0.8" y="55.7" transform="matrix(-0.7071 -0.7071 0.7071 -0.7071 -33.8322 111.3225)" fill="#231F20" stroke="#FFFFFF" stroke-width="1.4243" stroke-miterlimit="10" width="13.9" height="13.9"/>
				
					<rect x="3.7" y="60.5" transform="matrix(-0.7071 -0.7071 0.7071 -0.7071 -34.3959 111.089)" fill="#FFFFFF" width="4.3" height="4.3"/>
			</g>
		</g>
		<g>
			
				<rect x="12.5" y="30.8" transform="matrix(-0.7071 -0.7071 0.7071 -0.7071 12.2855 92.2855)" fill="#231F20" width="25.5" height="25.5"/>
			<line fill="none" stroke="#FFFFFF" stroke-width="1.4243" stroke-miterlimit="10" x1="15.4" y1="53.5" x2="34.4" y2="34.4"/>
			<line fill="none" stroke="#FFFFFF" stroke-width="1.4243" stroke-miterlimit="10" x1="34.4" y1="53.5" x2="15.4" y2="34.4"/>
			<g>
				
					<rect x="18.2" y="36.6" transform="matrix(-0.7071 -0.7071 0.7071 -0.7071 12.2066 92.2527)" fill="#231F20" stroke="#FFFFFF" stroke-width="1.4243" stroke-miterlimit="10" width="13.9" height="13.9"/>
				
					<rect x="22.7" y="41.5" transform="matrix(-0.7071 -0.7071 0.7071 -0.7071 11.6429 92.0192)" fill="#FFFFFF" width="4.3" height="4.3"/>
			</g>
		</g>
		<g>
			
				<rect x="31.6" y="11.8" transform="matrix(-0.7071 -0.7071 0.7071 -0.7071 58.3243 73.2159)" fill="#231F20" width="25.5" height="25.5"/>
			<line fill="none" stroke="#FFFFFF" stroke-width="1.4243" stroke-miterlimit="10" x1="34.4" y1="34.4" x2="53.5" y2="15.4"/>
			<line fill="none" stroke="#FFFFFF" stroke-width="1.4243" stroke-miterlimit="10" x1="53.5" y1="34.4" x2="34.4" y2="15.4"/>
			<g>
				
					<rect x="37.3" y="17.6" transform="matrix(-0.7071 -0.7071 0.7071 -0.7071 58.2454 73.1829)" fill="#231F20" stroke="#FFFFFF" stroke-width="1.4243" stroke-miterlimit="10" width="13.9" height="13.9"/>
				
					<rect x="41.8" y="22.4" transform="matrix(-0.7071 -0.7071 0.7071 -0.7071 57.6817 72.9494)" fill="#FFFFFF" width="4.3" height="4.3"/>
			</g>
		</g>
		<g>
			
				<rect x="50.6" y="-7.3" transform="matrix(-0.7071 -0.7071 0.7071 -0.7071 104.3631 54.1463)" fill="#231F20" width="25.5" height="25.5"/>
			<line fill="none" stroke="#FFFFFF" stroke-width="1.4243" stroke-miterlimit="10" x1="53.5" y1="15.4" x2="72.6" y2="-3.7"/>
			<line fill="none" stroke="#FFFFFF" stroke-width="1.4243" stroke-miterlimit="10" x1="72.6" y1="15.4" x2="53.5" y2="-3.7"/>
			<g>
				
					<rect x="56.4" y="-1.5" transform="matrix(-0.7071 -0.7071 0.7071 -0.7071 104.2842 54.1131)" fill="#231F20" stroke="#FFFFFF" stroke-width="1.4243" stroke-miterlimit="10" width="13.9" height="13.9"/>
				
					<rect x="60.9" y="3.3" transform="matrix(-0.7071 -0.7071 0.7071 -0.7071 103.7205 53.8796)" fill="#FFFFFF" width="4.3" height="4.3"/>
			</g>
		</g>
		<g>
			
				<rect x="-25.6" y="30.8" transform="matrix(-0.7071 -0.7071 0.7071 -0.7071 -52.8229 65.3163)" fill="#231F20" width="25.5" height="25.5"/>
			<line fill="none" stroke="#FFFFFF" stroke-width="1.4243" stroke-miterlimit="10" x1="-22.8" y1="53.5" x2="-3.7" y2="34.4"/>
			<line fill="none" stroke="#FFFFFF" stroke-width="1.4243" stroke-miterlimit="10" x1="-3.7" y1="53.5" x2="-22.8" y2="34.4"/>
			<g>
				
					<rect x="-19.9" y="36.6" transform="matrix(-0.7071 -0.7071 0.7071 -0.7071 -52.902 65.2838)" fill="#231F20" stroke="#FFFFFF" stroke-width="1.4243" stroke-miterlimit="10" width="13.9" height="13.9"/>
				
					<rect x="-15.4" y="41.5" transform="matrix(-0.7071 -0.7071 0.7071 -0.7071 -53.4657 65.0502)" fill="#FFFFFF" width="4.3" height="4.3"/>
			</g>
		</g>
		<g>
			
				<rect x="-6.6" y="11.8" transform="matrix(-0.7071 -0.7071 0.7071 -0.7071 -6.7841 46.2467)" fill="#231F20" width="25.5" height="25.5"/>
			<line fill="none" stroke="#FFFFFF" stroke-width="1.4243" stroke-miterlimit="10" x1="-3.7" y1="34.4" x2="15.4" y2="15.4"/>
			<line fill="none" stroke="#FFFFFF" stroke-width="1.4243" stroke-miterlimit="10" x1="15.4" y1="34.4" x2="-3.7" y2="15.4"/>
			<g>
				
					<rect x="-0.8" y="17.6" transform="matrix(-0.7071 -0.7071 0.7071 -0.7071 -6.8632 46.2139)" fill="#231F20" stroke="#FFFFFF" stroke-width="1.4243" stroke-miterlimit="10" width="13.9" height="13.9"/>
				
					<rect x="3.7" y="22.4" transform="matrix(-0.7071 -0.7071 0.7071 -0.7071 -7.4269 45.9804)" fill="#FFFFFF" width="4.3" height="4.3"/>
			</g>
		</g>
		<g>
			
				<rect x="12.5" y="-7.3" transform="matrix(-0.7071 -0.7071 0.7071 -0.7071 39.2547 27.1771)" fill="#231F20" width="25.5" height="25.5"/>
			<line fill="none" stroke="#FFFFFF" stroke-width="1.4243" stroke-miterlimit="10" x1="15.4" y1="15.4" x2="34.4" y2="-3.7"/>
			<line fill="none" stroke="#FFFFFF" stroke-width="1.4243" stroke-miterlimit="10" x1="34.4" y1="15.4" x2="15.4" y2="-3.7"/>
			<g>
				
					<rect x="18.2" y="-1.5" transform="matrix(-0.7071 -0.7071 0.7071 -0.7071 39.1756 27.1441)" fill="#231F20" stroke="#FFFFFF" stroke-width="1.4243" stroke-miterlimit="10" width="13.9" height="13.9"/>
				
					<rect x="22.7" y="3.3" transform="matrix(-0.7071 -0.7071 0.7071 -0.7071 38.6118 26.9106)" fill="#FFFFFF" width="4.3" height="4.3"/>
			</g>
		</g>
		<g>
			
				<rect x="31.6" y="-26.4" transform="matrix(-0.7071 -0.7071 0.7071 -0.7071 85.2935 8.1075)" fill="#231F20" width="25.5" height="25.5"/>
			<line fill="none" stroke="#FFFFFF" stroke-width="1.4243" stroke-miterlimit="10" x1="34.4" y1="-3.7" x2="53.5" y2="-22.8"/>
			<line fill="none" stroke="#FFFFFF" stroke-width="1.4243" stroke-miterlimit="10" x1="53.5" y1="-3.7" x2="34.4" y2="-22.8"/>
			<g>
				
					<rect x="37.3" y="-20.6" transform="matrix(-0.7071 -0.7071 0.7071 -0.7071 85.2144 8.0743)" fill="#231F20" stroke="#FFFFFF" stroke-width="1.4243" stroke-miterlimit="10" width="13.9" height="13.9"/>
				
					<rect x="41.8" y="-15.7" transform="matrix(-0.7071 -0.7071 0.7071 -0.7071 84.6506 7.8408)" fill="#FFFFFF" width="4.3" height="4.3"/>
			</g>
		</g>
	</g>
</g>
</svg>
