<?xml version="1.0" encoding="utf-8"?>
<!-- Generator: Adobe Illustrator 17.1.0, SVG Export Plug-In . SVG Version: 6.00 Build 0)  -->
<!DOCTYPE svg PUBLIC "-//W3C//DTD SVG 1.1//EN" "http://www.w3.org/Graphics/SVG/1.1/DTD/svg11.dtd">
<svg version="1.1" id="Layer_1" xmlns="http://www.w3.org/2000/svg" xmlns:xlink="http://www.w3.org/1999/xlink" x="0px" y="0px"
	 viewBox="0 0 90 90" enable-background="new 0 0 90 90" xml:space="preserve">
<g>
	<g>
		<defs>
			<circle id="SVGID_1_" cx="45" cy="45" r="45"/>
		</defs>
		<clipPath id="SVGID_2_">
			<use xlink:href="#SVGID_1_"  overflow="visible"/>
		</clipPath>
		<circle clip-path="url(#SVGID_2_)" fill="#424143" stroke="#424143" stroke-miterlimit="10" cx="45" cy="45" r="45"/>
		<g clip-path="url(#SVGID_2_)">
			<path fill="#FFFFFF" d="M79.4,47c0,4.8-3.5,8.6-7.7,8.6l0,0c-4.2,0-7.7-3.8-7.7-8.6v-4.4c0-4.8,3.5-8.6,7.7-8.6l0,0
				c4.2,0,7.7,3.8,7.7,8.6V47z"/>
			<polygon fill="#F2F2F2" points="70.6,62.6 72.7,62.6 77.1,56.1 78.2,56.1 90.3,62.6 90.3,70.3 64,70.3 57.5,62.8 62.1,58.6 
				65,55.9 66.1,55.9 			"/>
			<rect x="65.1" y="65" fill="#424143" width="8.8" height="2.3"/>
		</g>
		<g clip-path="url(#SVGID_2_)">
			<path fill="#FFFFFF" d="M26.3,47c0,4.8-3.5,8.6-7.7,8.6l0,0c-4.2,0-7.7-3.8-7.7-8.6v-4.4c0-4.8,3.5-8.6,7.7-8.6l0,0
				c4.2,0,7.7,3.8,7.7,8.6V47z"/>
			<polygon fill="#F2F2F2" points="19.4,62.6 17.1,62.6 12.7,56.1 11.8,56.1 -0.4,62.6 -0.4,70.3 25.8,70.3 32.5,62.8 27.9,58.6 
				25,55.9 23.9,55.9 			"/>
			<rect x="16.7" y="65" fill="#424143" width="8.8" height="2.3"/>
		</g>
		<path clip-path="url(#SVGID_2_)" fill="#FFFFFF" d="M56.2,55c0,7-4.8,12.5-10.8,12.5l0,0c-6,0-10.8-5.5-10.8-12.5v-5.5
			c0-7,4.8-12.5,10.8-12.5l0,0c6,0,10.8,5.5,10.8,12.5V55z"/>
		<path clip-path="url(#SVGID_2_)" fill="none" d="M72.5,80.1"/>
		<g clip-path="url(#SVGID_2_)">
			<path fill="#F2F2F2" stroke="#F2F2F2" stroke-width="0.16" stroke-linejoin="bevel" stroke-miterlimit="10" d="M52.6,20.8
				c0-4-3.2-7.2-7.2-7.2s-7.2,3.2-7.2,7.2c0,2.6,1.4,4.8,3.4,6v2h7.8v-2C51.2,25.6,52.6,23.3,52.6,20.8z"/>
			<g>
				<polygon fill="#424143" stroke="#F2F2F2" stroke-width="0.16" stroke-linejoin="bevel" stroke-miterlimit="10" points="
					43.7,20.1 41.9,20.1 41.9,22.8 43.7,22.8 43.7,27.1 44.6,27.1 44.6,22.8 44.6,20.1 				"/>
				<polygon fill="#424143" stroke="#F2F2F2" stroke-width="0.16" stroke-linejoin="bevel" stroke-miterlimit="10" points="
					46.9,20.1 48.6,20.1 48.6,22.8 46.9,22.8 46.9,27.1 45.9,27.1 45.9,22.8 45.9,20.1 				"/>
			</g>
			<rect x="41.3" y="29.8" fill="#FFFFFF" width="7.8" height="0.9"/>
			<rect x="41.3" y="31.4" fill="#FFFFFF" width="7.8" height="0.9"/>
			<rect x="43.3" y="33.1" fill="#FFFFFF" width="4" height="0.9"/>
			<path fill="#F2F2F2" d="M46.9,9.8c0,0.8-0.6,1.2-1.2,1.2l0,0c-0.8,0-1.2-0.6-1.2-1.2V5.2c0-0.8,0.6-1.2,1.2-1.2l0,0
				c0.8,0,1.2,0.6,1.2,1.2V9.8z"/>
			<g>
				<path fill="#F2F2F2" d="M41.8,10.2c0.3,0.6,0,1.4-0.6,1.7l0,0c-0.6,0.3-1.4,0-1.7-0.6l-2-4.1c-0.3-0.6,0-1.4,0.6-1.7l0,0
					c0.6-0.3,1.4,0,1.7,0.6L41.8,10.2z"/>
				<path fill="#F2F2F2" d="M37.3,13c0.6,0.5,0.6,1.2,0.2,1.8l0,0c-0.5,0.6-1.2,0.6-1.8,0.2l-3.5-2.9c-0.6-0.5-0.6-1.2-0.2-1.8l0,0
					c0.5-0.6,1.2-0.6,1.8-0.2L37.3,13z"/>
				<path fill="#F2F2F2" d="M34.4,17.3c0.8,0.2,1.1,0.9,0.9,1.5l0,0c-0.2,0.8-0.9,1.1-1.5,0.9l-4.5-1.1c-0.8-0.2-1.1-0.9-0.9-1.5
					l0,0c0.2-0.8,0.9-1.1,1.5-0.9L34.4,17.3z"/>
			</g>
			<g>
				<path fill="#F2F2F2" d="M49.6,10.2c-0.3,0.6,0,1.4,0.6,1.7l0,0c0.6,0.3,1.4,0,1.7-0.6l2-4.1c0.3-0.6,0-1.4-0.6-1.7l0,0
					c-0.6-0.3-1.4,0-1.7,0.6L49.6,10.2z"/>
				<path fill="#F2F2F2" d="M54.1,13c-0.6,0.5-0.6,1.2-0.2,1.8l0,0c0.5,0.6,1.2,0.6,1.8,0.2l3.5-2.9c0.6-0.5,0.6-1.2,0.2-1.8l0,0
					c-0.5-0.6-1.2-0.6-1.8-0.2L54.1,13z"/>
				<path fill="#F2F2F2" d="M57,17.3c-0.8,0.2-1.1,0.9-0.9,1.5l0,0c0.2,0.8,0.9,1.1,1.5,0.9l4.5-1.1c0.8-0.2,1.1-0.9,0.9-1.5l0,0
					c-0.2-0.8-0.9-1.1-1.5-0.9L57,17.3z"/>
			</g>
		</g>
		<path clip-path="url(#SVGID_2_)" fill="#F2F2F2" stroke="#FFFFFF" stroke-miterlimit="10" d="M72.5,90.1H17.3c0,0,0-10.1,0-13
			c4.1-0.5,13.9-5.5,18.7-10.8c4.1,5.5,13.2,6.5,18,0c6.7,9.8,18.5,11,18.5,11V90.1z"/>
		<rect x="42.2" y="74.5" clip-path="url(#SVGID_2_)" fill="#424143" width="5.8" height="5.8"/>
		<polygon clip-path="url(#SVGID_2_)" fill="#424143" points="50.4,90.1 39.8,90.1 42.2,81.4 48,81.4 		"/>
	</g>
</g>
</svg>
